<svg width="116" height="25" viewBox="0 0 116 25" fill="none" xmlns="http://www.w3.org/2000/svg">
<path d="M12.251 18.9047H15.4383C14.9643 20.5964 14.0898 21.8958 12.7577 22.7866C11.442 23.7182 9.78299 24.1759 7.78076 24.1759C5.35357 24.1759 3.45758 23.4322 2.10914 21.953C0.752525 20.4738 0.0742188 18.3871 0.0742188 15.6929C0.0742188 13.1023 0.728008 11.1001 2.0601 9.63721C3.40854 8.14167 5.30454 7.39798 7.73173 7.41433C10.2815 7.41433 12.251 8.12533 13.6567 9.58001C15.0215 11.0755 15.6998 13.135 15.6998 15.7992V16.4775C15.7054 16.6201 15.6803 16.7622 15.6262 16.8943H4.61805C4.65074 18.1528 4.98581 19.0845 5.58239 19.7056C6.12994 20.3594 6.9717 20.6699 8.05862 20.6699C8.69655 20.6848 9.32826 20.5416 9.8974 20.2531C10.0332 20.2198 10.154 20.1422 10.2406 20.0325C10.3714 19.9262 10.4776 19.8118 10.6084 19.7056C10.7175 19.5011 10.8817 19.3312 11.0824 19.2152C11.4297 18.9917 11.8386 18.883 12.251 18.9047ZM4.61805 14.1647H11.1069C11.0334 13.086 10.7392 12.2851 10.2325 11.7539C9.68493 11.19 8.88403 10.9121 7.87883 10.9121C6.94718 10.9121 6.18715 11.1818 5.5824 11.7539C4.96129 12.3177 4.65074 13.1186 4.61805 14.1647Z" fill="#AC2525"/>
<path d="M38.197 18.9051H41.3842C40.9102 20.5968 40.0358 21.8962 38.7037 22.787C37.3879 23.7186 35.7289 24.1763 33.7267 24.1763C31.2995 24.1763 29.4035 23.4326 28.0551 21.9534C26.6903 20.4987 25.9956 18.4148 26.012 15.7179C26.012 13.1273 26.6658 11.1087 27.9979 9.66217C29.3463 8.15028 31.2423 7.39843 33.6695 7.42294C36.2193 7.42294 38.1888 8.13394 39.5945 9.58862C40.9593 11.0842 41.6376 13.1436 41.6376 15.8078V16.4861C41.6432 16.6287 41.6181 16.7708 41.564 16.9029H30.5313C30.5885 18.1614 30.8991 19.0931 31.4957 19.7142C32.0432 20.368 32.885 20.6785 33.9719 20.6785C34.6098 20.6934 35.2415 20.5503 35.8107 20.2617C35.9465 20.2285 36.0673 20.1508 36.1539 20.0411C36.2847 19.9348 36.3909 19.8204 36.5217 19.7142C36.6308 19.5097 36.795 19.3398 36.9957 19.2238C37.3543 18.9976 37.7734 18.8864 38.197 18.9051ZM30.5558 14.1651H37.061C36.9711 13.0864 36.6769 12.2855 36.1703 11.7543C35.6227 11.1904 34.8218 10.9125 33.8166 10.9125C32.885 10.9125 32.1249 11.1822 31.5202 11.7543C30.9072 12.3182 30.613 13.1191 30.5558 14.1651Z" fill="#4E4E4E"/>
<path d="M16.4121 23.866V16.045C16.4121 14.4759 16.6491 13.1438 17.1395 12.0896C17.578 11.0757 18.2669 10.1899 19.1417 9.51529C19.9956 8.89317 20.9611 8.44093 21.9857 8.18319C23.0741 7.89901 24.1951 7.75888 25.32 7.7664H25.9574V12.0732H24.5109C23.2932 12.0732 22.3616 12.3429 21.7732 12.915C21.1848 13.487 20.8987 14.3533 20.8987 15.5792V23.8741H16.4121V23.866Z" fill="#4E4E4E"/>
<path d="M41.9883 18.5363H46.3278C46.3293 18.8936 46.4161 19.2454 46.581 19.5624C46.7459 19.8793 46.9841 20.1524 47.2758 20.3587C47.9132 20.7592 48.7713 20.9635 49.8256 20.9635C50.5055 20.9786 51.1796 20.8359 51.7951 20.5467C52.3018 20.277 52.5633 19.8684 52.5633 19.3944C52.5633 18.6834 51.6725 18.1195 49.8828 17.7681C49.298 17.6825 48.7193 17.5596 48.1502 17.4003C45.8865 16.8937 44.3746 16.248 43.6064 15.5207C42.7647 14.8097 42.3315 13.829 42.3315 12.6195C42.3222 11.8857 42.4835 11.1597 42.8026 10.4989C43.1217 9.83799 43.5899 9.26026 44.1703 8.81118C45.4452 7.87953 47.1042 7.42188 49.1473 7.42188C51.3702 7.42188 53.1436 7.87953 54.4512 8.82752C55.0484 9.29937 55.5344 9.89687 55.8748 10.5776C56.2152 11.2584 56.4015 12.0057 56.4207 12.7666H53.6829C53.311 12.7776 52.943 12.6868 52.6189 12.5039C52.2949 12.3209 52.0269 12.0529 51.8442 11.7287C51.6644 11.5653 51.5009 11.4018 51.3375 11.2384C50.8308 10.8706 50.1198 10.6908 49.2372 10.6908C48.3791 10.6908 47.7416 10.7971 47.3248 11.0586C47.1414 11.1738 46.9922 11.3363 46.893 11.5289C46.7938 11.7216 46.7482 11.9374 46.7609 12.1537C46.7609 12.7911 47.856 13.3387 50.0789 13.78C50.3012 13.8533 50.5277 13.9134 50.7572 13.9598C50.937 13.9925 51.125 14.017 51.3048 14.0333C53.4705 14.5645 54.9905 15.1611 55.8486 15.8558C56.6658 16.5831 57.0663 17.5474 57.0663 18.7733C57.0663 20.5385 56.388 21.9278 55.0232 22.8922C53.7483 23.7666 51.8523 24.2079 49.278 24.2079C46.8508 24.2079 45.0447 23.7503 43.8598 22.8186C42.6176 21.887 41.9965 20.5222 41.9965 18.7488L41.9883 18.5363Z" fill="#4E4E4E"/>
<path d="M65.2583 23.8652C63.7387 23.9592 62.214 23.9346 60.6982 23.7916C59.0555 23.6854 58.2383 22.6965 58.2383 20.8414V3.04199H60.5347C61.0872 3.04575 61.617 3.26235 62.0139 3.64675C62.2144 3.82805 62.3736 4.05029 62.4807 4.29843C62.5879 4.54658 62.6405 4.81484 62.635 5.08508V7.7983H65.242V8.6564C65.2485 8.93672 65.195 9.21519 65.085 9.47313C64.9751 9.73107 64.8113 9.96251 64.6046 10.1519C64.1863 10.5307 63.6406 10.7379 63.0763 10.7322H62.6187V19.6646C62.6187 20.3592 63.0355 20.7025 63.8936 20.7025H65.2257L65.2583 23.8652Z" fill="#4E4E4E"/>
<path fill-rule="evenodd" clip-rule="evenodd" d="M80.3715 20.1878C80.3552 20.2169 80.3361 20.2442 80.3143 20.2695C80.2808 20.3185 80.2465 20.3667 80.2113 20.415C80.177 20.4632 80.1419 20.5106 80.1059 20.558C79.9008 20.8264 79.6814 21.0836 79.4489 21.3286C79.4422 21.3366 79.4351 21.3443 79.4276 21.3515C79.426 21.3531 79.4252 21.3548 79.4235 21.3564C79.2437 21.193 79.1048 21.0622 78.9904 20.9641C78.7011 20.6936 78.3415 20.4109 78.0645 20.1101C78.5003 19.6691 78.8667 19.1646 79.1514 18.6138C79.5804 19.1531 80.0487 19.7514 80.3707 20.1861L80.3715 20.1878Z" fill="#4E4E4E"/>
<path fill-rule="evenodd" clip-rule="evenodd" d="M81.5089 17.6876C81.4967 17.735 81.4836 17.7824 81.4697 17.8298C81.4558 17.8797 81.4403 17.9303 81.4248 17.981C81.4051 18.048 81.3831 18.115 81.3602 18.1812C81.3381 18.2483 81.3144 18.3145 81.2907 18.3815C81.2425 18.5139 81.1902 18.6462 81.1346 18.777C81.1052 18.8473 81.075 18.9168 81.0431 18.9862C80.5667 18.6307 79.9962 18.187 79.5002 17.7955C79.8921 16.6498 79.9059 15.4085 79.5394 14.2544C79.0978 12.8776 78.1519 11.7186 76.8916 11.01C77.9757 11.7325 78.7869 12.7969 79.1962 14.0338C79.5594 15.1727 79.5494 16.3979 79.1676 17.5307C78.3708 16.8532 76.4543 14.9368 76.0171 14.4832C75.5758 14.0256 75.6902 14.0256 75.5595 13.6987C75.4532 13.3881 75.5595 12.9877 75.159 12.4565C74.7749 11.9498 73.5899 11.0182 72.4621 10.0702C71.318 9.14669 71.5141 9.34283 71.6612 9.48993C71.8083 9.63703 74.3581 12.1378 74.4889 12.3012C74.5025 12.3173 74.5125 12.3362 74.5183 12.3565C74.5241 12.3768 74.5255 12.3981 74.5224 12.4189C74.5193 12.4398 74.5118 12.4598 74.5004 12.4775C74.489 12.4953 74.4739 12.5104 74.4562 12.5219C74.4304 12.5418 74.3988 12.5526 74.3663 12.5526C74.3338 12.5526 74.3021 12.5418 74.2764 12.5219C74.0067 12.3012 73.7289 12.0642 73.4755 11.8272C72.8985 11.3148 71.2289 9.72692 71.1954 9.72692C71.1709 9.75961 73.9413 12.6036 74.0721 12.7344C74.1783 12.8651 74.0884 12.9223 74.0721 12.9387C74.0632 12.9551 74.0503 12.9689 74.0346 12.9789C74.0188 12.9889 74.0008 12.9948 73.9822 12.9959C73.9385 12.991 73.8979 12.9707 73.8678 12.9387C73.7452 12.8161 70.8939 10.0783 70.844 10.0783C70.8113 10.1029 72.4376 11.7618 72.9443 12.3421C73.1939 12.5929 73.426 12.8605 73.639 13.143C73.6585 13.176 73.6665 13.2147 73.6617 13.2528C73.6569 13.2909 73.6396 13.3263 73.6124 13.3535C73.5853 13.3806 73.5498 13.398 73.5117 13.4028C73.4736 13.4076 73.435 13.3995 73.402 13.38C73.2549 13.2737 70.7051 10.7403 70.5743 10.5932C70.4354 10.4461 70.2311 10.2663 71.1791 11.3777C72.1271 12.5055 73.0587 13.6742 73.5899 14.0746C74.1211 14.4751 74.5216 14.3525 74.8321 14.4587C75.159 14.565 75.159 14.4751 75.6167 14.8919C76.0743 15.3332 78.0602 17.2618 78.6977 18.0464C78.7532 18.115 78.8104 18.1861 78.8701 18.2605C78.596 18.8203 78.2386 19.3353 77.8101 19.7879C77.7343 19.6858 77.6804 19.5692 77.6517 19.4453C77.623 19.3214 77.6202 19.193 77.6434 19.0679C77.8069 18.3488 77.7905 17.1883 76.4421 16.1831C75.0936 15.1779 73.9985 15.2351 73.6144 15.2514C73.5094 15.2515 73.4055 15.2725 73.3086 15.3132C73.2118 15.3539 73.1241 15.4135 73.0505 15.4884C72.9055 15.6412 72.8212 15.8418 72.8135 16.0523C72.789 16.4364 72.7563 17.5315 73.7779 18.88C74.7994 20.2284 75.9681 20.2284 76.6791 20.065C76.7977 20.0419 76.9198 20.0431 77.0379 20.0685C77.156 20.0939 77.2678 20.143 77.3664 20.2129C76.7126 20.7795 75.9505 21.2074 75.1263 21.4706C74.3072 21.7331 73.4431 21.8251 72.5871 21.7407C71.7311 21.6564 70.9015 21.3976 70.1494 20.9803C70.9257 21.491 71.8072 21.8201 72.7283 21.9432C73.6494 22.0663 74.5863 21.9802 75.4696 21.6913C76.2838 21.4353 77.0379 21.0175 77.6867 20.463C77.9858 20.7376 78.267 21.0972 78.5424 21.3807C78.6404 21.4788 78.7875 21.6259 78.951 21.8057C78.5288 22.1783 78.0699 22.5072 77.5813 22.7872C77.5372 22.8125 77.493 22.8371 77.4489 22.8616C77.3165 22.9335 77.183 23.0021 77.0485 23.0675C77.0019 23.0896 76.9545 23.1116 76.9071 23.1329C76.8581 23.1558 76.809 23.177 76.76 23.1983C76.7003 23.2236 76.6407 23.2489 76.5802 23.2735C76.5646 23.2809 76.5485 23.2872 76.532 23.2923C76.4633 23.32 76.3947 23.3462 76.3252 23.3715C76.2884 23.3854 76.2517 23.3985 76.2149 23.4116C76.1413 23.4369 76.0678 23.4622 75.9934 23.4859C75.9566 23.4974 75.919 23.5088 75.8823 23.5203C75.8079 23.5431 75.7335 23.5652 75.6583 23.5856C75.3436 23.6721 75.0241 23.7401 74.7014 23.7891C74.609 23.803 74.5167 23.8153 74.4235 23.8267C74.2617 23.8455 74.0982 23.8602 73.9348 23.87C73.6493 23.8865 73.3632 23.8887 73.0775 23.8766C73.0375 23.8749 72.9966 23.8725 72.9557 23.87C72.9018 23.8668 72.847 23.8635 72.7923 23.8586C72.6836 23.8504 72.5757 23.8398 72.467 23.8267C72.3592 23.8136 72.2505 23.7989 72.1426 23.7818C72.0339 23.7646 71.926 23.745 71.8181 23.7238C71.7103 23.7017 71.6032 23.6788 71.4962 23.6527C71.3883 23.6265 71.2812 23.5987 71.175 23.5685C71.0687 23.5382 70.9617 23.5056 70.8563 23.4712C70.8064 23.4549 70.7566 23.4385 70.7067 23.4206C70.6078 23.3862 70.5098 23.3495 70.4117 23.3119C70.3618 23.2923 70.3128 23.2726 70.2638 23.2514C70.1657 23.2113 70.0684 23.1689 69.972 23.1247C69.5289 22.921 69.1042 22.6793 68.7028 22.4023C67.7997 21.7803 67.0281 20.9864 66.432 20.0659C65.8359 19.1454 65.4272 18.1165 65.2291 17.038C65.031 15.9594 65.0474 14.8524 65.2775 13.7802C65.5076 12.708 65.9467 11.6917 66.5699 10.7893C66.5698 10.7872 66.5702 10.785 66.571 10.783C66.5718 10.781 66.573 10.7792 66.5745 10.7777C66.5761 10.7762 66.5779 10.775 66.5799 10.7741C66.5819 10.7733 66.5841 10.773 66.5862 10.773C67.8462 8.95821 69.774 7.71657 71.9474 7.31986C74.1208 6.92316 76.3629 7.40373 78.1828 8.65636C78.2196 8.68169 78.2555 8.70702 78.2923 8.73236C78.401 8.80918 78.5064 8.88845 78.6102 8.97018C78.7491 9.07968 78.884 9.19246 79.0147 9.30851C79.1014 9.38533 79.1864 9.4646 79.2697 9.54551C79.3114 9.58637 79.3523 9.62642 79.3923 9.66728C79.604 9.88053 79.8037 10.1053 79.9905 10.3407V10.3415C80.3134 10.7464 80.597 11.1813 80.8372 11.6401C80.8707 11.7046 80.9042 11.77 80.9369 11.8362V11.837C81.0023 11.9686 81.0627 12.101 81.12 12.235C81.1772 12.3699 81.2311 12.5058 81.2818 12.6428V12.6437C81.3202 12.7483 81.3561 12.8529 81.3905 12.9583V12.9591C81.4248 13.0645 81.4567 13.1708 81.4861 13.2778C81.5008 13.3318 81.5155 13.3849 81.5294 13.4388C81.5293 13.4405 81.5295 13.4422 81.5302 13.4437C81.5498 13.5222 81.5694 13.6015 81.5874 13.6799C81.5873 13.6816 81.5876 13.6833 81.5882 13.6848C81.6062 13.7641 81.6234 13.8442 81.6389 13.9251C81.6544 14.0052 81.6691 14.0861 81.6822 14.1662C81.7223 14.4105 81.7517 14.6573 81.7705 14.9049C81.8394 15.8406 81.751 16.7812 81.5089 17.6876Z" fill="#4E4E4E"/>
<path d="M82.1151 0.40332C81.5017 0.403321 80.9021 0.585217 80.392 0.926007C79.882 1.2668 79.4845 1.75117 79.2498 2.31789C79.015 2.8846 78.9536 3.50819 79.0733 4.10981C79.1929 4.71143 79.4883 5.26406 79.9221 5.6978C80.3558 6.13154 80.9084 6.42692 81.51 6.54659C82.1117 6.66626 82.7353 6.60484 83.302 6.3701C83.8687 6.13536 84.3531 5.73784 84.6939 5.22781C85.0346 4.71778 85.2165 4.11815 85.2165 3.50475C85.2156 2.6825 84.8885 1.8942 84.3071 1.31278C83.7257 0.731361 82.9374 0.404292 82.1151 0.40332ZM82.1151 6.17855C81.5863 6.17855 81.0693 6.02173 80.6296 5.72793C80.1899 5.43413 79.8472 5.01654 79.6448 4.52797C79.4425 4.03939 79.3895 3.50178 79.4927 2.98312C79.5959 2.46445 79.8505 1.98803 80.2244 1.61409C80.5984 1.24015 81.0748 0.985499 81.5935 0.88233C82.1121 0.779161 82.6498 0.832112 83.1383 1.03448C83.6269 1.23686 84.0445 1.57957 84.3383 2.01927C84.6321 2.45897 84.7889 2.97592 84.7889 3.50475C84.7881 4.21363 84.5061 4.89325 84.0049 5.3945C83.5036 5.89576 82.824 6.17772 82.1151 6.17855Z" fill="#AC2525"/>
<path d="M81.9284 1.73717C82.161 1.7304 82.3929 1.76454 82.6136 1.83802C82.7783 1.8931 82.9201 2.001 83.0171 2.14497C83.1109 2.30316 83.157 2.48516 83.1496 2.66897C83.1537 2.80858 83.1236 2.94707 83.0619 3.07238C83.0063 3.18014 82.9277 3.27443 82.8317 3.34864C82.7386 3.42066 82.6361 3.47966 82.527 3.52404L83.4369 4.94257H82.8427L82.0688 3.65778H81.5535V4.94257H81.0273V1.73717H81.9284ZM81.8934 2.17566H81.5535V3.22366H81.9175C82.1049 3.23947 82.2923 3.19158 82.4491 3.08773C82.5057 3.03811 82.5501 2.97609 82.5789 2.9065C82.6076 2.83691 82.6198 2.76162 82.6147 2.68651C82.622 2.61108 82.6096 2.53503 82.5787 2.46583C82.5478 2.39664 82.4994 2.33669 82.4382 2.29186C82.2711 2.20274 82.0823 2.16247 81.8934 2.17566Z" fill="#AC2525"/>
<path d="M86.7482 20.6372V23.4116H85.1467V16.4643C85.1467 16.2387 85.2219 16.0507 85.3723 15.9003C85.5377 15.7349 85.7332 15.6522 85.9588 15.6522H88.5979C89.4249 15.6522 90.0415 15.8628 90.4475 16.2838C90.8685 16.7049 91.0791 17.3289 91.0791 18.156C91.0791 18.9379 90.8761 19.5545 90.4701 20.0056C90.064 20.4267 89.4776 20.6372 88.7107 20.6372H86.7482ZM86.7482 19.2387H88.3046C88.7257 19.2387 89.0264 19.1485 89.2069 18.968C89.4024 18.8026 89.5001 18.5169 89.5001 18.1109C89.5001 17.765 89.4099 17.4868 89.2295 17.2763C89.0189 17.0958 88.7407 17.0056 88.3949 17.0056H86.7482V19.2387ZM94.6737 15.6522H95.4857C95.6962 15.6522 95.8767 15.7274 96.027 15.8778C96.1774 16.0131 96.2526 16.1861 96.2526 16.3966V23.4116H94.6737V15.6522ZM104.99 17.4116V20.9304C104.99 21.9981 104.712 22.6973 104.155 23.0282C103.599 23.359 102.99 23.5244 102.328 23.5244C101.682 23.4943 101.088 23.3139 100.546 22.983C100.02 22.6522 99.757 21.968 99.757 20.9304V17.4116H101.336V21.2462C101.336 21.6071 101.441 21.8703 101.652 22.0357C101.862 22.2011 102.103 22.2838 102.374 22.2838C102.644 22.2838 102.885 22.2011 103.095 22.0357C103.321 21.8703 103.434 21.6071 103.434 21.2462V18.1785C103.434 17.968 103.501 17.7876 103.637 17.6372C103.787 17.4868 103.975 17.4116 104.201 17.4116H104.99ZM108.337 21.4267H109.87C109.885 21.7274 109.998 21.953 110.209 22.1034C110.434 22.2537 110.735 22.3289 111.111 22.3289C111.382 22.3289 111.615 22.2763 111.81 22.171C111.991 22.0658 112.081 21.9229 112.081 21.7424C112.081 21.4718 111.765 21.2688 111.134 21.1334C110.863 21.0883 110.66 21.0432 110.524 20.9981C109.727 20.8026 109.194 20.5695 108.923 20.2988C108.622 20.0282 108.472 19.6673 108.472 19.2161C108.472 18.6447 108.69 18.171 109.126 17.7951C109.577 17.4492 110.164 17.2763 110.885 17.2763C111.667 17.2763 112.291 17.4492 112.758 17.7951C113.194 18.171 113.427 18.6597 113.457 19.2612H112.487C112.201 19.2612 111.983 19.1334 111.833 18.8778C111.773 18.8176 111.712 18.7575 111.652 18.6973C111.472 18.562 111.224 18.4943 110.908 18.4943C110.607 18.4943 110.382 18.5394 110.231 18.6297C110.096 18.7199 110.028 18.8552 110.028 19.0357C110.028 19.2763 110.419 19.4793 111.201 19.6447C111.291 19.6748 111.367 19.6973 111.427 19.7124C111.502 19.7274 111.57 19.7349 111.63 19.7349C112.397 19.9304 112.93 20.156 113.231 20.4116C113.517 20.6823 113.66 21.0432 113.66 21.4943C113.66 22.156 113.419 22.6673 112.938 23.0282C112.487 23.359 111.81 23.5244 110.908 23.5244C110.051 23.5244 109.412 23.3515 108.991 23.0056C108.555 22.6597 108.337 22.156 108.337 21.4943V21.4267Z" fill="#AC2324"/>
</svg>
