<svg width="25" height="34" viewBox="0 0 25 34" fill="none" xmlns="http://www.w3.org/2000/svg">
<path d="M0.969238 6.36C0.969238 2.95013 3.81996 0.185883 7.33653 0.185883H18.2619C21.7785 0.185883 24.6292 2.95013 24.6292 6.36C24.6292 8.51916 23.4862 10.4195 21.7549 11.523C23.4862 12.6266 24.6292 14.5268 24.6292 16.686C24.6292 20.0959 21.7785 22.8602 18.2619 22.8602H18.1237C16.4751 22.8602 14.9728 22.2526 13.8421 21.2559V26.9447C13.8421 30.4 10.9168 33.1859 7.37083 33.1859C3.86305 33.1859 0.969238 30.4301 0.969238 27.0117C0.969238 24.8527 2.11214 22.9525 3.84332 21.8489C2.11214 20.7453 0.969238 18.8451 0.969238 16.686C0.969238 14.5268 2.11224 12.6266 3.84354 11.523C2.11224 10.4195 0.969238 8.51916 0.969238 6.36ZM11.7564 12.5343H7.33653C4.97183 12.5343 3.0549 14.3931 3.0549 16.686C3.0549 18.9701 4.95705 20.8234 7.30914 20.8377C7.31825 20.8376 7.32736 20.8376 7.33653 20.8376H11.7564V12.5343ZM13.8421 16.686C13.8421 18.9789 15.759 20.8378 18.1237 20.8378H18.2619C20.6267 20.8378 22.5436 18.9789 22.5436 16.686C22.5436 14.3931 20.6267 12.5343 18.2619 12.5343H18.1237C15.759 12.5343 13.8421 14.3931 13.8421 16.686ZM7.33653 22.8602C7.32736 22.8602 7.31825 22.8601 7.30914 22.8601C4.95705 22.8743 3.0549 24.7276 3.0549 27.0117C3.0549 29.2963 4.99744 31.1635 7.37083 31.1635C9.78246 31.1635 11.7564 29.2662 11.7564 26.9447V22.8602H7.33653ZM7.33653 2.20828C4.97183 2.20828 3.0549 4.06708 3.0549 6.36C3.0549 8.65296 4.97183 10.5117 7.33653 10.5117H11.7564V2.20828H7.33653ZM13.8421 10.5117H18.2619C20.6267 10.5117 22.5436 8.65296 22.5436 6.36C22.5436 4.06708 20.6267 2.20828 18.2619 2.20828H13.8421V10.5117Z" fill="white"/>
</svg>
