<svg width="20" height="20" viewBox="0 0 20 20" fill="none" xmlns="http://www.w3.org/2000/svg">
<path d="M0 9.8799C0 8.5199 0.266667 7.22657 0.8 5.9999C1.85333 3.5199 3.62 1.75324 6.1 0.699902C7.32667 0.166569 8.62 -0.100098 9.98 -0.100098C11.34 -0.100098 12.6333 0.166569 13.86 0.699902C16.3133 1.7399 18.08 3.50657 19.16 5.9999C19.6933 7.26657 19.96 8.5599 19.96 9.8799C19.96 11.1999 19.6933 12.4932 19.16 13.7599C18.08 16.2666 16.3133 18.0466 13.86 19.0999C12.6333 19.6332 11.34 19.8999 9.98 19.8999C8.62 19.8999 7.32667 19.6332 6.1 19.0999C3.62 18.0332 1.85333 16.2532 0.8 13.7599C0.266667 12.5332 0 11.2399 0 9.8799ZM1.56 9.8799C1.56 11.7599 2.12 13.4399 3.24 14.9199C4.34667 16.3732 5.79333 17.4066 7.58 18.0199V16.4199C7.58 15.6199 7.84667 15.0399 8.38 14.6799C8.11333 14.6666 7.8 14.6199 7.44 14.5399C6.76 14.4199 6.18 14.2066 5.7 13.8999C4.48667 13.1666 3.88 11.8399 3.88 9.9199C3.88 8.9199 4.21333 8.06657 4.88 7.3599C4.57333 6.57324 4.60667 5.7199 4.98 4.7999H5.38C5.51333 4.7999 5.68 4.83324 5.88 4.8999C6.4 5.0599 6.98 5.35324 7.62 5.7799C8.43333 5.56657 9.23333 5.4599 10.02 5.4599C10.8067 5.4599 11.6133 5.56657 12.44 5.7799C12.96 5.43324 13.4467 5.16657 13.9 4.9799C14.3267 4.8199 14.6333 4.75324 14.82 4.7799L15.06 4.7999C15.42 5.7199 15.4533 6.57324 15.16 7.3599C15.8267 8.06657 16.16 8.9199 16.16 9.9199C16.16 11.4132 15.7933 12.5399 15.06 13.2999C14.66 13.7266 14.1333 14.0599 13.48 14.2999C12.9333 14.4999 12.3267 14.6266 11.66 14.6799C12.2067 15.0666 12.48 15.6466 12.48 16.4199V18.0199C14.2 17.4066 15.62 16.3599 16.74 14.8799C17.8333 13.4132 18.38 11.7466 18.38 9.8799C18.38 8.74657 18.16 7.65324 17.72 6.5999C17.2933 5.58657 16.6933 4.69324 15.92 3.9199C15.1733 3.17324 14.28 2.5799 13.24 2.1399C12.1733 1.68657 11.0867 1.4599 9.98 1.4599C8.88667 1.4599 7.79333 1.68657 6.7 2.1399C5.7 2.56657 4.80667 3.1599 4.02 3.9199C3.27333 4.69324 2.67333 5.58657 2.22 6.5999C1.78 7.65324 1.56 8.74657 1.56 9.8799Z" fill="white"/>
</svg>
