<svg width="20" height="20" viewBox="0 0 20 20" fill="none" xmlns="http://www.w3.org/2000/svg">
<mask id="mask0_60_25" style="mask-type:alpha" maskUnits="userSpaceOnUse" x="0" y="0" width="20" height="20">
<rect y="20" width="20" height="20" transform="rotate(-90 0 20)" fill="#D9D9D9"/>
</mask>
<g mask="url(#mask0_60_25)">
<path d="M14.1667 10.8333V14.1666C14.1667 15.3194 13.7604 16.302 12.9479 17.1145C12.1354 17.927 11.1528 18.3333 10 18.3333C8.84722 18.3333 7.86458 17.927 7.05208 17.1145C6.23958 16.302 5.83333 15.3194 5.83333 14.1666L5.83333 10.8333H7.5V14.1666C7.5 14.861 7.74306 15.4513 8.22917 15.9374C8.71528 16.4235 9.30556 16.6666 10 16.6666C10.6944 16.6666 11.2847 16.4235 11.7708 15.9374C12.2569 15.4513 12.5 14.861 12.5 14.1666V10.8333H14.1667ZM10.8333 13.3333H9.16667V6.66659H10.8333V13.3333ZM14.1667 9.16659H12.5V5.83325C12.5 5.13881 12.2569 4.54853 11.7708 4.06242C11.2847 3.57631 10.6944 3.33325 10 3.33325C9.30556 3.33325 8.71528 3.57631 8.22917 4.06242C7.74306 4.54853 7.5 5.13881 7.5 5.83325V9.16659H5.83333V5.83325C5.83333 4.68047 6.23958 3.69783 7.05208 2.88533C7.86458 2.07284 8.84722 1.66659 10 1.66659C11.1528 1.66659 12.1354 2.07284 12.9479 2.88533C13.7604 3.69783 14.1667 4.68047 14.1667 5.83325V9.16659Z" fill="white"/>
</g>
</svg>
