<svg width="64" height="64" viewBox="0 0 64 64" fill="none" xmlns="http://www.w3.org/2000/svg">
<g clip-path="url(#clip0_102_3)">
<circle cx="32" cy="32" r="32" fill="black"/>
<path d="M15 20H62" stroke="white" stroke-width="3"/>
<path d="M2 44H50" stroke="white" stroke-width="3"/>
<path d="M15 32H50" stroke="white" stroke-width="3"/>
<mask id="path-5-inside-1_102_3" fill="white">
<path d="M15.5 18.4865C14.5151 18.4896 13.5404 18.6867 12.6317 19.0665C11.7229 19.4462 10.8979 20.0013 10.2036 20.6999C9.50938 21.3985 8.95953 22.227 8.58548 23.1381C8.21142 24.0493 8.02049 25.0251 8.02358 26.01C8.02667 26.995 8.22373 27.9696 8.60349 28.8784C8.98325 29.7871 9.53829 30.6122 10.2369 31.3064C10.9355 32.0007 11.7641 32.5505 12.6752 32.9246C13.5863 33.2986 14.5622 33.4896 15.5471 33.4865L15.5377 30.4865C14.9467 30.4883 14.3612 30.3738 13.8145 30.1494C13.2679 29.9249 12.7707 29.595 12.3516 29.1785C11.9324 28.7619 11.5994 28.2669 11.3715 27.7216C11.1437 27.1764 11.0254 26.5916 11.0236 26.0006C11.0217 25.4097 11.1363 24.8242 11.3607 24.2775C11.5851 23.7308 11.915 23.2337 12.3316 22.8145C12.7481 22.3954 13.2432 22.0623 13.7884 21.8345C14.3337 21.6066 14.9185 21.4884 15.5094 21.4865L15.5 18.4865Z"/>
</mask>
<path d="M15.5 18.4865C14.5151 18.4896 13.5404 18.6867 12.6317 19.0665C11.7229 19.4462 10.8979 20.0013 10.2036 20.6999C9.50938 21.3985 8.95953 22.227 8.58548 23.1381C8.21142 24.0493 8.02049 25.0251 8.02358 26.01C8.02667 26.995 8.22373 27.9696 8.60349 28.8784C8.98325 29.7871 9.53829 30.6122 10.2369 31.3064C10.9355 32.0007 11.7641 32.5505 12.6752 32.9246C13.5863 33.2986 14.5622 33.4896 15.5471 33.4865L15.5377 30.4865C14.9467 30.4883 14.3612 30.3738 13.8145 30.1494C13.2679 29.9249 12.7707 29.595 12.3516 29.1785C11.9324 28.7619 11.5994 28.2669 11.3715 27.7216C11.1437 27.1764 11.0254 26.5916 11.0236 26.0006C11.0217 25.4097 11.1363 24.8242 11.3607 24.2775C11.5851 23.7308 11.915 23.2337 12.3316 22.8145C12.7481 22.3954 13.2432 22.0623 13.7884 21.8345C14.3337 21.6066 14.9185 21.4884 15.5094 21.4865L15.5 18.4865Z" stroke="white" stroke-width="6" mask="url(#path-5-inside-1_102_3)"/>
<mask id="path-6-inside-2_102_3" fill="white">
<path d="M50 45.5C50.9849 45.5 51.9602 45.306 52.8701 44.9291C53.7801 44.5522 54.6069 43.9997 55.3033 43.3033C55.9997 42.6069 56.5522 41.7801 56.9291 40.8701C57.306 39.9602 57.5 38.9849 57.5 38C57.5 37.0151 57.306 36.0398 56.9291 35.1299C56.5522 34.2199 55.9997 33.3931 55.3033 32.6967C54.6069 32.0003 53.7801 31.4478 52.8701 31.0709C51.9602 30.694 50.9849 30.5 50 30.5L50 33.5C50.5909 33.5 51.1761 33.6164 51.7221 33.8425C52.268 34.0687 52.7641 34.4002 53.182 34.818C53.5998 35.2359 53.9313 35.732 54.1575 36.2779C54.3836 36.8239 54.5 37.4091 54.5 38C54.5 38.5909 54.3836 39.1761 54.1575 39.7221C53.9313 40.268 53.5998 40.7641 53.182 41.182C52.7641 41.5998 52.268 41.9313 51.7221 42.1575C51.1761 42.3836 50.5909 42.5 50 42.5V45.5Z"/>
</mask>
<path d="M50 45.5C50.9849 45.5 51.9602 45.306 52.8701 44.9291C53.7801 44.5522 54.6069 43.9997 55.3033 43.3033C55.9997 42.6069 56.5522 41.7801 56.9291 40.8701C57.306 39.9602 57.5 38.9849 57.5 38C57.5 37.0151 57.306 36.0398 56.9291 35.1299C56.5522 34.2199 55.9997 33.3931 55.3033 32.6967C54.6069 32.0003 53.7801 31.4478 52.8701 31.0709C51.9602 30.694 50.9849 30.5 50 30.5L50 33.5C50.5909 33.5 51.1761 33.6164 51.7221 33.8425C52.268 34.0687 52.7641 34.4002 53.182 34.818C53.5998 35.2359 53.9313 35.732 54.1575 36.2779C54.3836 36.8239 54.5 37.4091 54.5 38C54.5 38.5909 54.3836 39.1761 54.1575 39.7221C53.9313 40.268 53.5998 40.7641 53.182 41.182C52.7641 41.5998 52.268 41.9313 51.7221 42.1575C51.1761 42.3836 50.5909 42.5 50 42.5V45.5Z" stroke="white" stroke-width="6" mask="url(#path-6-inside-2_102_3)"/>
</g>
<defs>
<clipPath id="clip0_102_3">
<rect width="64" height="64" fill="white"/>
</clipPath>
</defs>
</svg>
